<?xml version="1.0" encoding="utf-8"?>
<!-- Generator: Adobe Illustrator 23.0.1, SVG Export Plug-In . SVG Version: 6.00 Build 0)  -->
<svg version="1.1" id="Layer_1" xmlns="http://www.w3.org/2000/svg" xmlns:xlink="http://www.w3.org/1999/xlink" x="0px" y="0px"
	 viewBox="0 0 198 197.3" style="enable-background:new 0 0 198 197.3;" xml:space="preserve">
<style type="text/css">
	.st0{fill:#7863AF;}
	.st1{fill:#2E2E2E;}
	.st2{opacity:0.35;}
	.st3{fill:#9B4A98;}
	.st4{fill:#7762AC;}
	.st5{fill:#7661AB;}
	.st6{fill:#7661AC;}
</style>
<title>Asset 2</title>
<g>
	<g>
		<g id="Layer_1-2">
			<path class="st0" d="M197.1,100.1c-0.8,42.9-29.1,80.4-70.2,92.9C68.8,210.7,8.3,171.4,0.8,110.8C-6.9,48.8,44.1-4.6,106.3,0.3
				c49.7,4,87.2,43.1,90.7,94.8"/>
			<path class="st1" d="M2.9,98.7c0-52.8,42.7-95.6,95.4-95.6s95.6,42.7,95.6,95.4c0,52.8-42.7,95.6-95.4,95.6c-0.1,0-0.2,0-0.4,0
				C45.5,194.1,2.9,151.3,2.9,98.7z"/>
			<g>
				<g class="st2">
					<path class="st3" d="M2.9,98.7c0-52.8,42.7-95.6,95.4-95.6s95.6,42.7,95.6,95.4c0,52.8-42.7,95.6-95.4,95.6c-0.1,0-0.2,0-0.4,0
						C45.5,194.1,2.9,151.3,2.9,98.7z"/>
				</g>
			</g>
			<path class="st4" d="M54.9,152.2c-2.2,0-4.3,0.1-6.5,0.1c-2.4,0-4.5-0.4-4.6-3.4c-0.1-3.1,2-3.8,4.6-3.9
				c12-0.2,23.4-5.2,31.7-13.9c8.9-9.2,13.6-20.3,14.9-33c0.4-3.7-0.7-5-4.5-5c-8-0.2-15.9-1.8-22.8-6.2c-9.9-6.1-12.9-19-6.8-28.9
				c1.9-3.1,4.6-5.7,7.8-7.4c10.4-5.9,22-6.3,33.5-6.1c7.3,0.2,14.6,0.9,21.6,3.5c10.5,3.9,16.3,11.2,16.2,21s-5.7,17.2-16.2,21
				c-5.5,2.1-11.3,3.1-17.1,3.1c-3.1-0.1-4,1.2-3.8,4.2c1,20.8,16.8,46.3,45.7,47.6c2.7,0.1,5.3,0.6,5.4,3.8
				c0.1,3.6-2.9,3.5-5.4,3.4c-23-0.9-37.9-13.4-47.8-33.1c-0.4-0.9-0.8-1.8-1.2-2.6c-0.9-0.2-1.3,0.2-1.6,0.9
				c-8,18.3-21.5,30-41.1,34.6c-0.4,0.5-1.1,0.7-1.7,0.3C55,152.3,55,152.2,54.9,152.2z"/>
			<path class="st5" d="M155.1,108.1c0.1,4-2.8,7.1-6.2,6.8c-3.6-0.3-5.7-2.4-6-6c-0.3-3.4,2.6-6.7,5.9-6.6
				C152.7,102.5,154.7,104.8,155.1,108.1z"/>
			<path class="st5" d="M26.4,130.2c-3.5,0.1-6.5-2.8-6.3-6.2s2.1-5.9,5.9-6c4-0.1,6.2,2.1,6.6,5.9C32.9,127.3,30,130.1,26.4,130.2z
				"/>
			<path class="st5" d="M173.3,121.9c4-0.1,5.8,2.3,6.2,5.8c0.4,3.3-2.9,6.5-6.3,6.4c-3.7-0.2-5.9-2.3-6.2-5.9
				C166.8,124.8,169.8,121.9,173.3,121.9z"/>
			<path class="st6" d="M180.7,106.2c-4.6,0.1-7.6-2.6-7.3-6.1s2.3-5.9,6.1-6.1c3.3-0.2,6.2,2.3,6.4,5.6c0,0.2,0,0.4,0,0.6
				C185.6,103.8,183.7,106.1,180.7,106.2z"/>
			<path class="st5" d="M50.1,100.9c3.7,0,6.8,2.8,6.4,6.2s-2.4,5.8-6.2,6c-3.5,0-6.3-2.7-6.3-6.2c0,0,0-0.1,0-0.1
				C44.1,103.5,46.8,100.9,50.1,100.9C50.1,100.9,50.1,100.9,50.1,100.9z"/>
			<path class="st6" d="M16.8,106.2c-4.3,0-7.1-2.7-6.9-6.2s2.3-5.8,6-5.9c3.2-0.2,6,2.3,6.1,5.6c0,0.2,0,0.5,0,0.7
				C22,104.1,19.9,106,16.8,106.2z"/>
		</g>
	</g>
</g>
</svg>
